<svg width="32" height="32" viewBox="0 0 32 32" fill="none" xmlns="http://www.w3.org/2000/svg">
  <defs>
    <linearGradient id="grad1" x1="0%" y1="0%" x2="100%" y2="100%">
      <stop offset="0%" style="stop-color:#8B5CF6;stop-opacity:1" />
      <stop offset="100%" style="stop-color:#EC4899;stop-opacity:1" />
    </linearGradient>
    <linearGradient id="grad2" x1="0%" y1="0%" x2="100%" y2="100%">
      <stop offset="0%" style="stop-color:#3B82F6;stop-opacity:1" />
      <stop offset="100%" style="stop-color:#06B6D4;stop-opacity:1" />
    </linearGradient>
  </defs>
  
  <!-- Background circle with gradient -->
  <circle cx="16" cy="16" r="15" fill="url(#grad1)" stroke="url(#grad2)" stroke-width="2"/>
  
  <!-- Letter S with modern styling -->
  <path d="M12 8C12 8 14 6 18 6C22 6 24 8 24 10C24 12 22 13 20 13C18 13 16 12 16 10C16 8 18 7 20 7C22 7 24 8 24 10" 
        stroke="white" stroke-width="2.5" stroke-linecap="round" stroke-linejoin="round" fill="none"/>
  
  <path d="M20 18C20 18 18 20 14 20C10 20 8 18 8 16C8 14 10 13 12 13C14 13 16 14 16 16C16 18 14 19 12 19C10 19 8 18 8 16" 
        stroke="white" stroke-width="2.5" stroke-linecap="round" stroke-linejoin="round" fill="none"/>
  
  <!-- Small accent dots -->
  <circle cx="8" cy="8" r="1.5" fill="white" opacity="0.8"/>
  <circle cx="24" cy="24" r="1.5" fill="white" opacity="0.8"/>
</svg>
